<svg width="476" height="405" viewBox="0 0 476 405" fill="none" xmlns="http://www.w3.org/2000/svg">
<path d="M5 403L33.4013 257L53.9376 328.5L78.4065 167L108.119 328.5L114.891 282L125.815 328.5H154.435V282H176.063L186.987 167L208.834 188.5L226.312 64.5L240.075 328.5V282L261.704 257L292.946 328.5V257L330.96 117L348.656 2L390.821 142L417.911 282L426.213 238.5L443.691 282L471 117" stroke="#4CAF50" stroke-width="10"/>
<path d="M5 403L56.1816 235.228L105.299 332.385L146.91 145.081L186.612 332.385L209.672 306.844L231.19 126.05L280.37 260.268L324.014 306.844V235.228L355.395 95L371.113 332.385L408.261 381.465L427.175 260.268L455.5 306.844" stroke="#FF6666" stroke-width="10"/>
</svg>
